<svg width="35" height="35" viewBox="0 0 35 35" fill="none" xmlns="http://www.w3.org/2000/svg">
<path d="M34.7682 18.0359V18.0127C34.7682 17.9896 34.7682 17.9664 34.7914 17.92V17.8969C34.7914 17.8505 34.8146 17.8273 34.8146 17.781V17.7578V17.7346C34.8146 17.7115 34.8146 17.7115 34.8146 17.7115L34.8378 17.5956L34.8609 17.5029C34.8609 17.4102 34.8841 17.3407 34.8841 17.2711C34.8841 17.2016 34.9073 17.1321 34.9073 17.0626C34.9073 16.993 34.9305 16.9467 34.9305 16.9003V16.854C34.9305 16.8076 34.9305 16.7845 34.9305 16.7381V16.7149V16.6918C34.9305 16.6454 34.9305 16.5991 34.9536 16.5295V16.5064C34.9536 16.4368 34.9768 16.3673 34.9768 16.2746C34.9768 16.2051 34.9768 16.1124 35 16.0429V16.0197V15.9965V15.9733C35 15.9038 35 15.8343 35 15.7879C35 15.6952 35 15.6257 35 15.533V15.4867C35 15.4171 35 15.3708 35 15.3013V15.1622C35 15.1159 35 15.0695 35 15C35 14.9536 35 14.8841 35 14.8378V14.7914C34.9536 10.9907 33.4241 7.42178 30.7126 4.75666C28.0011 2.09153 24.409 0.608337 20.5851 0.608337C19.7045 0.608337 18.8239 0.677862 17.9896 0.840087C19.9594 2.02201 21.6744 3.62108 23.0185 5.54461C24.9652 8.3256 25.9849 11.5933 25.9849 15.0232C25.9849 18.4299 24.9652 21.6976 23.0185 24.5017C21.1182 27.2132 18.4762 29.299 15.394 30.4809C13.4936 31.2225 11.4774 31.5933 9.41481 31.5933C6.40207 31.5933 3.5052 30.7821 0.979126 29.299H1.0023C1.02548 29.3221 1.02548 29.3221 1.04865 29.3453L1.095 29.3916C1.11818 29.4148 1.16453 29.4612 1.1877 29.4844C1.23405 29.5307 1.30358 29.6002 1.3731 29.6466C1.41945 29.6929 1.4658 29.7161 1.48898 29.7624C1.5585 29.832 1.62803 29.9015 1.72073 29.971C1.76708 30.0174 1.81343 30.0637 1.85978 30.1101L1.88295 30.1333L2.022 30.2491L2.04517 30.2723C2.09152 30.2955 2.1147 30.3418 2.16105 30.365L2.18422 30.3882L2.2074 30.4114C2.23057 30.4345 2.27692 30.4809 2.32327 30.504H2.34645H2.36962C2.3928 30.5272 2.43915 30.5504 2.46232 30.5736C2.5782 30.6663 2.6709 30.7358 2.78677 30.8285C2.80995 30.8517 2.83312 30.8748 2.8563 30.8748C2.87947 30.898 2.90265 30.9212 2.949 30.9444C2.97217 30.9676 2.97217 30.9675 2.99535 30.9675L3.01852 30.9907C3.06487 31.0139 3.11122 31.0602 3.15757 31.0834L3.20392 31.1066C3.2271 31.1298 3.25027 31.1298 3.27345 31.1529C3.29662 31.1761 3.34297 31.1993 3.36615 31.2225L3.4125 31.2456C3.5052 31.3152 3.57472 31.3615 3.66742 31.431C3.71377 31.4542 3.73695 31.4774 3.7833 31.5006L3.80647 31.5237L3.89917 31.5933L3.99187 31.6628C4.03822 31.686 4.08457 31.7323 4.1541 31.7555C4.20045 31.7787 4.26997 31.825 4.31632 31.8482H4.50172L4.73347 32.0568C4.75665 32.0799 4.803 32.1031 4.84935 32.1263C4.91887 32.1726 4.9884 32.219 5.05792 32.2422C5.10427 32.2653 5.1738 32.3117 5.22015 32.3349C5.52142 32.4971 5.82269 32.6593 6.12397 32.7984C6.19349 32.8215 6.26302 32.8679 6.33254 32.8911C6.33254 32.8911 6.35572 32.8911 6.35572 32.9142C6.42524 32.9374 6.47159 32.9838 6.54112 33.0069C6.72652 33.0996 6.91192 33.1923 7.12049 33.2619C7.16684 33.285 7.21319 33.3082 7.25954 33.3314C7.28272 33.3314 7.28272 33.3546 7.30589 33.3546C7.37542 33.3777 7.42177 33.4009 7.49129 33.4241C7.65352 33.4936 7.81574 33.54 7.97797 33.6095C8.02432 33.6327 8.09384 33.6558 8.14019 33.679C8.39512 33.7717 8.65004 33.8644 8.88179 33.9339C8.92814 33.9571 8.97449 33.9571 9.02084 33.9803C9.09037 34.0035 9.15989 34.0266 9.25259 34.0498L9.32211 34.073C9.41481 34.0962 9.50751 34.1193 9.57704 34.1425C9.62339 34.1657 9.66974 34.1657 9.71609 34.1889C10.2723 34.3279 10.8285 34.467 11.3847 34.5597C11.4542 34.5828 11.5237 34.5828 11.6164 34.606C11.7091 34.6292 11.7787 34.6292 11.8482 34.6524C11.9177 34.6755 12.0104 34.6755 12.0799 34.6755C13.0069 34.8146 13.9339 34.8609 14.8841 34.8609C15.8111 34.8609 16.7613 34.7914 17.6883 34.6755H17.7115C17.781 34.6755 17.8505 34.6524 17.9432 34.6524L34.6524 17.9432C34.7682 18.0359 34.7682 18.0359 34.7682 18.0359Z" fill="#222222"/>
</svg>
